<?xml version="1.0" encoding="utf-8"?>
 <!DOCTYPE svg PUBLIC "-//W3C//DTD SVG 1.1//EN" "http://www.w3.org/Graphics/SVG/1.1/DTD/svg11.dtd">
 <svg height="704" width="704" viewBox="0 0 704.02343 704.00001" enable-background="new 0 0 1322.044 1314" version="1.1" xmlns="http://www.w3.org/2000/svg">
 <g>
  <path d="m157.96 308.26 5.8509-5.8509 0.97515-52.658s-7.8967-12.464-6.826-18.528c1.8742-10.613 22.796-10.531 25.354 0 2.0119 8.2825-7.8012 18.528-7.8012 18.528v52.658l5.8509 5.8509h51.683v-5.8509h-3.9006l7.8012-8.7763 8.7763 8.7763h-3.9006v5.8509h40.956v-9.7514h-3.9006l20.478-22.428 22.428 22.428h-3.9006v9.7514h48.757v-29.254l18.528-8.7763v-18.528h-2.9254l7.8012-7.8012 7.8012 7.8012h-2.9254v18.528l19.503 9.7514v28.279h39.006v-22.428l-12.677-15.602s21.572-17.045 33.155-19.503h157.97c5.3018 6.4204 2.1122 22.714-2.9254 27.304-12.048-0.42613-15.138-7.456-24.379-8.7763-22.717-3.2472-41.575 13.32-42.906 33.155-0.70698 10.525 4.8972 29.843 18.528 32.18 13.04 2.2341 14.872-6.4564 24.379-7.8012 8.0674-1.1419 10.127 2.6407 17.553 3.9006 6.0147-1.1273 8.1259-8.4106 14.627-9.7514 10.441-2.1541 17.945 7.495 29.254 8.7763 12.389 1.4042 23.837-1.0073 30.229 7.8012-14.699 40.558-33.252 74.338-59.484 103.37h-75.086l-10.727-10.727-22.428 10.727h-430.04l-0.97514-6.826-16.577 24.379h-73.136v-14.627l59.484-49.732 16.577 13.652s38.236-23.796 56.558-37.055c0 0 7.2756-59.238-9.7514-77.036-5.6549 0.45442-10.25-0.15115-12.677-2.9254-3.4131-5.8677 2.8435-10.808 5.8509-13.652h-9.7514v-43.881l13.652-15.602 13.652 15.602-0.97515 39.981zm318.87 13.652h25.354v-38.031h-25.354zm43.881-38.031v38.031h25.354v-38.031zm39.006 85.813v31.205h14.627v-31.205zm-431.01 22.428h10.727l1.9503-9.7514zm-103.37 50.707h11.702l1.9503-11.702zm22.428 0h7.8012l-3.9006-11.702zm19.503 0h5.8509l-9.7514-11.702z"/>
  <circle cy="433.63" cx="328.41" r="51.788"/>
  <circle cy="433.63" cx="457.13" r="51.788"/>
  <circle cy="452.39" cx="200.13" r="34.038"/>
  <circle cy="452.39" cx="124.07" r="34.038"/>
  <circle cy="452.39" cx="594.09" r="34.038"/>
 </g>
</svg>
